<svg xmlns="http://www.w3.org/2000/svg" xmlns:xlink="http://www.w3.org/1999/xlink" width="768" zoomAndPan="magnify" viewBox="0 0 576 107.999999" height="144" preserveAspectRatio="xMidYMid meet" version="1.0"><defs><g/><clipPath id="3131ec1cb9"><path d="M 0.480469 10 L 36 10 L 36 80 L 0.480469 80 Z M 0.480469 10 " clip-rule="nonzero"/></clipPath><clipPath id="889fc71431"><rect x="0" width="351" y="0" height="101"/></clipPath><clipPath id="4c7b07ef2c"><path d="M 451.835938 37.210938 L 461.585938 37.210938 L 461.585938 46.960938 L 451.835938 46.960938 Z M 451.835938 37.210938 " clip-rule="nonzero"/></clipPath></defs><g transform="matrix(1, 0, 0, 1, 114, 3)"><g clip-path="url(#889fc71431)"><g clip-path="url(#3131ec1cb9)"><g fill="#ffffff" fill-opacity="1"><g transform="translate(0.666942, 62.298527)"><g><path d="M 8.453125 17.15625 C 6.804688 17.15625 5.359375 16.742188 4.109375 15.921875 C 2.859375 15.097656 1.875 13.992188 1.15625 12.609375 C 0.445312 11.234375 0.09375 9.738281 0.09375 8.125 C 0.09375 6.257812 0.304688 4.007812 0.734375 1.375 C 1.160156 -1.25 1.753906 -4.132812 2.515625 -7.28125 C 3.273438 -10.4375 4.15625 -13.691406 5.15625 -17.046875 C 6.15625 -20.410156 7.207031 -23.753906 8.3125 -27.078125 C 9.425781 -30.410156 10.550781 -33.585938 11.6875 -36.609375 C 12.832031 -39.640625 13.945312 -42.375 15.03125 -44.8125 C 16.125 -47.25 17.117188 -49.242188 18.015625 -50.796875 C 18.234375 -51.140625 18.632812 -51.285156 19.21875 -51.234375 C 19.800781 -51.191406 20.503906 -51.078125 21.328125 -50.890625 C 22.148438 -50.703125 22.878906 -50.457031 23.515625 -50.15625 C 24.148438 -49.851562 24.4375 -49.523438 24.375 -49.171875 C 24.34375 -48.984375 24.097656 -48.863281 23.640625 -48.8125 C 23.179688 -48.769531 22.539062 -48.445312 21.71875 -47.84375 C 20.832031 -47.207031 19.847656 -45.957031 18.765625 -44.09375 C 17.691406 -42.226562 16.578125 -39.925781 15.421875 -37.1875 C 14.265625 -34.445312 13.109375 -31.441406 11.953125 -28.171875 C 10.796875 -24.910156 9.691406 -21.570312 8.640625 -18.15625 C 6.929688 -12.507812 5.53125 -7.644531 4.4375 -3.5625 C 3.34375 0.519531 2.796875 4.128906 2.796875 7.265625 C 2.796875 10.367188 3.25 12.5625 4.15625 13.84375 C 5.0625 15.132812 6.429688 15.78125 8.265625 15.78125 C 9.941406 15.78125 11.695312 15.554688 13.53125 15.109375 C 15.375 14.660156 17.210938 14.082031 19.046875 13.375 C 20.890625 12.664062 22.648438 11.90625 24.328125 11.09375 C 26.003906 10.289062 27.539062 9.507812 28.9375 8.75 C 30.332031 7.988281 31.472656 7.335938 32.359375 6.796875 C 32.453125 6.734375 32.664062 6.703125 33 6.703125 C 33.332031 6.703125 33.640625 6.734375 33.921875 6.796875 C 34.210938 6.859375 34.375 6.96875 34.40625 7.125 C 34.4375 7.28125 34.226562 7.503906 33.78125 7.796875 C 32.351562 8.710938 30.617188 9.707031 28.578125 10.78125 C 26.535156 11.863281 24.347656 12.882812 22.015625 13.84375 C 19.691406 14.8125 17.363281 15.601562 15.03125 16.21875 C 12.707031 16.84375 10.515625 17.15625 8.453125 17.15625 Z M 8.453125 17.15625 "/></g></g></g></g><g fill="#ffffff" fill-opacity="1"><g transform="translate(28.220575, 62.298527)"><g><path d="M 26.1875 -14.875 C 26.28125 -15.03125 26.453125 -15.082031 26.703125 -15.03125 C 26.953125 -14.988281 27.164062 -14.878906 27.34375 -14.703125 C 27.519531 -14.523438 27.53125 -14.34375 27.375 -14.15625 C 26.800781 -13.363281 26.003906 -12.441406 24.984375 -11.390625 C 23.972656 -10.347656 22.78125 -9.304688 21.40625 -8.265625 C 20.03125 -7.222656 18.507812 -6.328125 16.84375 -5.578125 C 15.175781 -4.835938 13.410156 -4.375 11.546875 -4.1875 C 10.785156 -2.789062 9.976562 -1.515625 9.125 -0.359375 C 8.269531 0.796875 7.429688 1.707031 6.609375 2.375 C 5.785156 3.039062 5.023438 3.375 4.328125 3.375 C 3.628906 3.375 2.976562 3.144531 2.375 2.6875 C 1.769531 2.226562 1.285156 1.664062 0.921875 1 C 0.554688 0.332031 0.375 -0.316406 0.375 -0.953125 C 0.40625 -1.867188 0.515625 -2.8125 0.703125 -3.78125 C 0.898438 -4.75 1.15625 -5.707031 1.46875 -6.65625 C 0.613281 -7.351562 0 -8.132812 -0.375 -9 C -0.757812 -9.875 -0.953125 -10.753906 -0.953125 -11.640625 C -0.953125 -13.253906 -0.597656 -14.71875 0.109375 -16.03125 C 0.828125 -17.351562 1.753906 -18.488281 2.890625 -19.4375 C 4.035156 -20.382812 5.269531 -21.109375 6.59375 -21.609375 C 7.925781 -22.117188 9.226562 -22.375 10.5 -22.375 C 11.894531 -22.375 13.097656 -21.921875 14.109375 -21.015625 C 15.117188 -20.117188 15.625 -18.941406 15.625 -17.484375 C 15.625 -15.773438 15.289062 -13.828125 14.625 -11.640625 C 13.96875 -9.453125 13.128906 -7.332031 12.109375 -5.28125 C 13.660156 -5.5 15.300781 -5.988281 17.03125 -6.75 C 18.757812 -7.507812 20.421875 -8.5625 22.015625 -9.90625 C 23.617188 -11.25 25.007812 -12.90625 26.1875 -14.875 Z M 1.65625 -10.546875 C 1.65625 -9.785156 1.816406 -9.085938 2.140625 -8.453125 C 2.742188 -9.847656 3.382812 -11.113281 4.0625 -12.25 C 4.738281 -13.394531 5.394531 -14.304688 6.03125 -14.984375 C 6.664062 -15.671875 7.15625 -16.015625 7.5 -16.015625 C 8.363281 -16.015625 8.984375 -15.742188 9.359375 -15.203125 C 9.742188 -14.660156 9.820312 -14.203125 9.59375 -13.828125 C 9 -12.710938 8.359375 -11.441406 7.671875 -10.015625 C 6.992188 -8.597656 6.367188 -7.191406 5.796875 -5.796875 C 6.429688 -5.609375 7.132812 -5.457031 7.90625 -5.34375 C 8.6875 -5.226562 9.550781 -5.171875 10.5 -5.171875 L 10.78125 -5.171875 C 11.800781 -7.140625 12.648438 -9.265625 13.328125 -11.546875 C 14.003906 -13.828125 14.34375 -16.015625 14.34375 -18.109375 C 14.34375 -19.085938 14.082031 -19.859375 13.5625 -20.421875 C 13.039062 -20.992188 12.367188 -21.28125 11.546875 -21.28125 C 10.441406 -21.28125 9.390625 -20.992188 8.390625 -20.421875 C 7.390625 -19.859375 6.476562 -19.132812 5.65625 -18.25 C 4.832031 -17.363281 4.117188 -16.421875 3.515625 -15.421875 C 2.910156 -14.421875 2.445312 -13.484375 2.125 -12.609375 C 1.8125 -11.742188 1.65625 -11.054688 1.65625 -10.546875 Z M 4.328125 2.1875 C 5.085938 2.1875 6.015625 1.59375 7.109375 0.40625 C 8.203125 -0.78125 9.253906 -2.296875 10.265625 -4.140625 L 10.171875 -4.140625 C 8.296875 -4.140625 6.695312 -4.328125 5.375 -4.703125 C 4.894531 -3.460938 4.492188 -2.320312 4.171875 -1.28125 C 3.859375 -0.238281 3.703125 0.597656 3.703125 1.234375 C 3.703125 1.867188 3.910156 2.1875 4.328125 2.1875 Z M 4.328125 2.1875 "/></g></g></g><g fill="#ffffff" fill-opacity="1"><g transform="translate(49.075829, 62.298527)"><g><path d="M 15.4375 11.078125 C 15.0625 11.078125 14.53125 10.898438 13.84375 10.546875 C 13.164062 10.203125 12.554688 9.6875 12.015625 9 C 11.484375 8.320312 11.21875 7.460938 11.21875 6.421875 C 11.21875 5.429688 11.421875 4.195312 11.828125 2.71875 C 12.242188 1.25 12.789062 -0.351562 13.46875 -2.09375 C 14.15625 -3.832031 14.882812 -5.585938 15.65625 -7.359375 C 16.4375 -9.140625 17.195312 -10.8125 17.9375 -12.375 C 18.675781 -13.945312 19.316406 -15.3125 19.859375 -16.46875 C 20.398438 -17.625 20.78125 -18.453125 21 -18.953125 C 21.21875 -19.460938 21.1875 -19.53125 20.90625 -19.15625 C 20.59375 -18.707031 20.003906 -17.941406 19.140625 -16.859375 C 18.285156 -15.785156 17.28125 -14.550781 16.125 -13.15625 C 14.96875 -11.769531 13.75 -10.347656 12.46875 -8.890625 C 11.1875 -7.429688 9.9375 -6.082031 8.71875 -4.84375 C 7.5 -3.613281 6.40625 -2.609375 5.4375 -1.828125 C 4.46875 -1.054688 3.734375 -0.671875 3.234375 -0.671875 C 2.878906 -0.671875 2.492188 -0.84375 2.078125 -1.1875 C 1.671875 -1.53125 1.332031 -1.929688 1.0625 -2.390625 C 0.800781 -2.859375 0.671875 -3.28125 0.671875 -3.65625 C 0.671875 -4.863281 0.84375 -6.03125 1.1875 -7.15625 C 1.53125 -8.28125 1.898438 -9.269531 2.296875 -10.125 C 2.703125 -10.976562 2.984375 -11.59375 3.140625 -11.96875 C 3.234375 -12.195312 3.234375 -12.421875 3.140625 -12.640625 L 3.09375 -12.734375 C 2.96875 -12.984375 2.953125 -13.222656 3.046875 -13.453125 C 3.328125 -14.148438 3.65625 -14.78125 4.03125 -15.34375 C 4.414062 -15.914062 4.75 -16.25 5.03125 -16.34375 C 5.257812 -16.40625 5.609375 -16.328125 6.078125 -16.109375 C 6.554688 -15.890625 6.96875 -15.601562 7.3125 -15.25 C 7.664062 -14.90625 7.710938 -14.570312 7.453125 -14.25 C 7.171875 -13.875 6.753906 -13.265625 6.203125 -12.421875 C 5.648438 -11.585938 5.085938 -10.65625 4.515625 -9.625 C 3.941406 -8.59375 3.460938 -7.578125 3.078125 -6.578125 C 2.703125 -5.578125 2.53125 -4.726562 2.5625 -4.03125 C 2.59375 -3.6875 2.644531 -3.398438 2.71875 -3.171875 C 2.800781 -2.953125 3.003906 -2.84375 3.328125 -2.84375 C 4.023438 -2.84375 4.867188 -3.207031 5.859375 -3.9375 C 6.859375 -4.664062 7.941406 -5.640625 9.109375 -6.859375 C 10.285156 -8.085938 11.484375 -9.421875 12.703125 -10.859375 C 13.929688 -12.296875 15.128906 -13.734375 16.296875 -15.171875 C 17.472656 -16.617188 18.539062 -17.953125 19.5 -19.171875 C 20.46875 -20.390625 21.289062 -21.363281 21.96875 -22.09375 C 22.65625 -22.820312 23.109375 -23.1875 23.328125 -23.1875 C 23.453125 -23.21875 23.710938 -23.160156 24.109375 -23.015625 C 24.503906 -22.878906 24.851562 -22.675781 25.15625 -22.40625 C 25.457031 -22.132812 25.515625 -21.804688 25.328125 -21.421875 C 25.234375 -21.234375 24.90625 -20.550781 24.34375 -19.375 C 23.789062 -18.207031 23.101562 -16.726562 22.28125 -14.9375 C 21.457031 -13.15625 20.59375 -11.21875 19.6875 -9.125 C 18.789062 -7.03125 17.945312 -4.9375 17.15625 -2.84375 C 16.363281 -0.757812 15.710938 1.164062 15.203125 2.9375 C 14.691406 4.71875 14.4375 6.144531 14.4375 7.21875 C 14.4375 8.488281 14.816406 9.28125 15.578125 9.59375 C 15.773438 9.65625 15.9375 9.8125 16.0625 10.0625 C 16.1875 10.320312 16.21875 10.554688 16.15625 10.765625 C 16.09375 10.972656 15.851562 11.078125 15.4375 11.078125 Z M 15.4375 11.078125 "/></g></g></g><g fill="#ffffff" fill-opacity="1"><g transform="translate(77.579597, 62.298527)"><g><path d="M 10.875 -24.375 C 10.75 -24.125 10.539062 -24.035156 10.25 -24.109375 C 9.96875 -24.191406 9.707031 -24.351562 9.46875 -24.59375 C 9.238281 -24.832031 9.15625 -25.0625 9.21875 -25.28125 C 9.28125 -25.4375 9.363281 -25.765625 9.46875 -26.265625 C 9.582031 -26.773438 9.71875 -27.351562 9.875 -28 C 10.039062 -28.65625 10.191406 -29.257812 10.328125 -29.8125 C 10.472656 -30.363281 10.578125 -30.769531 10.640625 -31.03125 C 10.703125 -31.28125 10.90625 -31.375 11.25 -31.3125 C 11.601562 -31.25 11.984375 -31.082031 12.390625 -30.8125 C 12.804688 -30.539062 13.140625 -30.242188 13.390625 -29.921875 C 13.648438 -29.609375 13.734375 -29.328125 13.640625 -29.078125 C 13.515625 -28.765625 13.253906 -28.28125 12.859375 -27.625 C 12.460938 -26.976562 12.066406 -26.34375 11.671875 -25.71875 C 11.273438 -25.101562 11.007812 -24.65625 10.875 -24.375 Z M 3.65625 3.46875 C 2.957031 3.46875 2.332031 3.273438 1.78125 2.890625 C 1.226562 2.515625 0.953125 1.789062 0.953125 0.71875 C 0.953125 -0.425781 1.085938 -1.726562 1.359375 -3.1875 C 1.628906 -4.644531 1.953125 -6.097656 2.328125 -7.546875 C 2.710938 -9.003906 3.101562 -10.3125 3.5 -11.46875 C 3.894531 -12.625 4.21875 -13.441406 4.46875 -13.921875 C 4.59375 -14.140625 4.625 -14.394531 4.5625 -14.6875 C 4.53125 -14.84375 4.472656 -14.957031 4.390625 -15.03125 C 4.316406 -15.113281 4.328125 -15.25 4.421875 -15.4375 C 4.960938 -16.488281 5.332031 -17.195312 5.53125 -17.5625 C 5.738281 -17.925781 5.921875 -18.125 6.078125 -18.15625 C 6.335938 -18.21875 6.59375 -18.1875 6.84375 -18.0625 C 7.320312 -17.894531 7.796875 -17.601562 8.265625 -17.1875 C 8.742188 -16.78125 9.132812 -16.367188 9.4375 -15.953125 C 9.738281 -15.546875 9.820312 -15.25 9.6875 -15.0625 C 8.988281 -13.988281 8.269531 -12.726562 7.53125 -11.28125 C 6.789062 -9.84375 6.085938 -8.351562 5.421875 -6.8125 C 4.753906 -5.28125 4.191406 -3.835938 3.734375 -2.484375 C 3.273438 -1.140625 2.988281 -0.0195312 2.875 0.875 C 2.757812 1.78125 2.878906 2.3125 3.234375 2.46875 C 3.671875 2.65625 4.316406 2.507812 5.171875 2.03125 C 6.035156 1.5625 7.046875 0.847656 8.203125 -0.109375 C 9.359375 -1.078125 10.582031 -2.195312 11.875 -3.46875 C 13.175781 -4.738281 14.472656 -6.078125 15.765625 -7.484375 C 17.066406 -8.890625 18.296875 -10.28125 19.453125 -11.65625 C 20.609375 -13.039062 21.613281 -14.300781 22.46875 -15.4375 C 22.851562 -15.945312 23.140625 -16.160156 23.328125 -16.078125 C 23.515625 -16.003906 23.613281 -15.816406 23.625 -15.515625 C 23.644531 -15.210938 23.5625 -14.96875 23.375 -14.78125 C 23.3125 -14.6875 23.003906 -14.289062 22.453125 -13.59375 C 21.898438 -12.894531 21.171875 -12 20.265625 -10.90625 C 19.359375 -9.8125 18.332031 -8.625 17.1875 -7.34375 C 16.050781 -6.0625 14.863281 -4.785156 13.625 -3.515625 C 12.394531 -2.242188 11.171875 -1.078125 9.953125 -0.015625 C 8.734375 1.035156 7.582031 1.878906 6.5 2.515625 C 5.425781 3.148438 4.476562 3.46875 3.65625 3.46875 Z M 3.65625 3.46875 "/></g></g></g><g fill="#ffffff" fill-opacity="1"><g transform="translate(94.871883, 62.298527)"><g><path d="M 27.171875 -11.640625 C 27.335938 -11.703125 27.5 -11.582031 27.65625 -11.28125 C 27.8125 -10.976562 27.8125 -10.796875 27.65625 -10.734375 C 26.320312 -10.296875 24.71875 -9.578125 22.84375 -8.578125 C 20.976562 -7.578125 18.96875 -6.378906 16.8125 -4.984375 C 14.664062 -3.597656 12.484375 -2.09375 10.265625 -0.46875 C 11.566406 0.21875 12.460938 1 12.953125 1.875 C 13.441406 2.75 13.6875 3.800781 13.6875 5.03125 C 13.6875 6.019531 13.34375 7.15625 12.65625 8.4375 C 11.976562 9.71875 11.066406 11.046875 9.921875 12.421875 C 8.785156 13.804688 7.507812 15.140625 6.09375 16.421875 C 4.6875 17.703125 3.234375 18.851562 1.734375 19.875 C 0.234375 20.90625 -1.21875 21.726562 -2.625 22.34375 C -4.039062 22.96875 -5.304688 23.28125 -6.421875 23.28125 C -7.492188 23.28125 -8.351562 23.039062 -9 22.5625 C -9.65625 22.09375 -10.125 21.515625 -10.40625 20.828125 C -10.6875 20.148438 -10.828125 19.507812 -10.828125 18.90625 C -10.828125 17.863281 -10.359375 16.632812 -9.421875 15.21875 C -8.492188 13.8125 -7.210938 12.289062 -5.578125 10.65625 C -3.953125 9.03125 -2.109375 7.347656 -0.046875 5.609375 C 2.015625 3.867188 4.1875 2.171875 6.46875 0.515625 C 6.238281 0.453125 5.988281 0.390625 5.71875 0.328125 C 5.457031 0.265625 5.195312 0.203125 4.9375 0.140625 C 4.144531 -0.109375 3.304688 -0.492188 2.421875 -1.015625 C 1.535156 -1.546875 0.78125 -2.179688 0.15625 -2.921875 C -0.457031 -3.660156 -0.765625 -4.460938 -0.765625 -5.328125 C -0.765625 -6.554688 -0.488281 -7.734375 0.0625 -8.859375 C 0.625 -9.984375 1.332031 -11.035156 2.1875 -12.015625 C 3.039062 -13.003906 3.898438 -13.882812 4.765625 -14.65625 C 5.640625 -15.4375 6.394531 -16.0625 7.03125 -16.53125 C 7.601562 -16.914062 7.90625 -17.328125 7.9375 -17.765625 C 7.96875 -18.148438 8.332031 -18.5 9.03125 -18.8125 C 10.101562 -19.289062 11.203125 -19.789062 12.328125 -20.3125 C 13.453125 -20.832031 14.285156 -21.09375 14.828125 -21.09375 C 15.265625 -21.09375 15.632812 -20.894531 15.9375 -20.5 C 16.238281 -20.101562 16.40625 -19.691406 16.4375 -19.265625 C 16.46875 -18.835938 16.28125 -18.546875 15.875 -18.390625 C 14.988281 -18.066406 13.914062 -17.515625 12.65625 -16.734375 C 11.40625 -15.960938 10.113281 -15.054688 8.78125 -14.015625 C 7.457031 -12.972656 6.21875 -11.878906 5.0625 -10.734375 C 3.90625 -9.597656 2.960938 -8.5 2.234375 -7.4375 C 1.503906 -6.375 1.140625 -5.429688 1.140625 -4.609375 C 1.140625 -4.066406 1.441406 -3.628906 2.046875 -3.296875 C 2.648438 -2.960938 3.394531 -2.691406 4.28125 -2.484375 C 5.164062 -2.285156 6.050781 -2.046875 6.9375 -1.765625 C 7.28125 -1.660156 7.601562 -1.550781 7.90625 -1.4375 C 8.207031 -1.332031 8.503906 -1.21875 8.796875 -1.09375 C 11.171875 -2.769531 13.503906 -4.320312 15.796875 -5.75 C 18.097656 -7.175781 20.226562 -8.398438 22.1875 -9.421875 C 24.15625 -10.453125 25.816406 -11.191406 27.171875 -11.640625 Z M 11.359375 2.609375 C 11.359375 2.109375 11.078125 1.742188 10.515625 1.515625 C 9.960938 1.296875 9.242188 1.109375 8.359375 0.953125 C 6.078125 2.691406 3.875 4.472656 1.75 6.296875 C -0.363281 8.117188 -2.253906 9.890625 -3.921875 11.609375 C -5.585938 13.335938 -6.898438 14.921875 -7.859375 16.359375 C -8.828125 17.804688 -9.3125 19.019531 -9.3125 20 C -9.3125 20.445312 -9.132812 20.867188 -8.78125 21.265625 C -8.4375 21.660156 -7.898438 21.8125 -7.171875 21.71875 C -5.941406 21.5625 -4.632812 21.109375 -3.25 20.359375 C -1.875 19.617188 -0.488281 18.671875 0.90625 17.515625 C 2.300781 16.359375 3.625 15.085938 4.875 13.703125 C 6.125 12.328125 7.226562 10.945312 8.1875 9.5625 C 9.15625 8.1875 9.925781 6.890625 10.5 5.671875 C 11.070312 4.453125 11.359375 3.429688 11.359375 2.609375 Z M 11.359375 2.609375 "/></g></g></g><g fill="#ffffff" fill-opacity="1"><g transform="translate(117.532373, 62.298527)"><g><path d="M 10.875 -24.375 C 10.75 -24.125 10.539062 -24.035156 10.25 -24.109375 C 9.96875 -24.191406 9.707031 -24.351562 9.46875 -24.59375 C 9.238281 -24.832031 9.15625 -25.0625 9.21875 -25.28125 C 9.28125 -25.4375 9.363281 -25.765625 9.46875 -26.265625 C 9.582031 -26.773438 9.71875 -27.351562 9.875 -28 C 10.039062 -28.65625 10.191406 -29.257812 10.328125 -29.8125 C 10.472656 -30.363281 10.578125 -30.769531 10.640625 -31.03125 C 10.703125 -31.28125 10.90625 -31.375 11.25 -31.3125 C 11.601562 -31.25 11.984375 -31.082031 12.390625 -30.8125 C 12.804688 -30.539062 13.140625 -30.242188 13.390625 -29.921875 C 13.648438 -29.609375 13.734375 -29.328125 13.640625 -29.078125 C 13.515625 -28.765625 13.253906 -28.28125 12.859375 -27.625 C 12.460938 -26.976562 12.066406 -26.34375 11.671875 -25.71875 C 11.273438 -25.101562 11.007812 -24.65625 10.875 -24.375 Z M 3.65625 3.46875 C 2.957031 3.46875 2.332031 3.273438 1.78125 2.890625 C 1.226562 2.515625 0.953125 1.789062 0.953125 0.71875 C 0.953125 -0.425781 1.085938 -1.726562 1.359375 -3.1875 C 1.628906 -4.644531 1.953125 -6.097656 2.328125 -7.546875 C 2.710938 -9.003906 3.101562 -10.3125 3.5 -11.46875 C 3.894531 -12.625 4.21875 -13.441406 4.46875 -13.921875 C 4.59375 -14.140625 4.625 -14.394531 4.5625 -14.6875 C 4.53125 -14.84375 4.472656 -14.957031 4.390625 -15.03125 C 4.316406 -15.113281 4.328125 -15.25 4.421875 -15.4375 C 4.960938 -16.488281 5.332031 -17.195312 5.53125 -17.5625 C 5.738281 -17.925781 5.921875 -18.125 6.078125 -18.15625 C 6.335938 -18.21875 6.59375 -18.1875 6.84375 -18.0625 C 7.320312 -17.894531 7.796875 -17.601562 8.265625 -17.1875 C 8.742188 -16.78125 9.132812 -16.367188 9.4375 -15.953125 C 9.738281 -15.546875 9.820312 -15.25 9.6875 -15.0625 C 8.988281 -13.988281 8.269531 -12.726562 7.53125 -11.28125 C 6.789062 -9.84375 6.085938 -8.351562 5.421875 -6.8125 C 4.753906 -5.28125 4.191406 -3.835938 3.734375 -2.484375 C 3.273438 -1.140625 2.988281 -0.0195312 2.875 0.875 C 2.757812 1.78125 2.878906 2.3125 3.234375 2.46875 C 3.671875 2.65625 4.316406 2.507812 5.171875 2.03125 C 6.035156 1.5625 7.046875 0.847656 8.203125 -0.109375 C 9.359375 -1.078125 10.582031 -2.195312 11.875 -3.46875 C 13.175781 -4.738281 14.472656 -6.078125 15.765625 -7.484375 C 17.066406 -8.890625 18.296875 -10.28125 19.453125 -11.65625 C 20.609375 -13.039062 21.613281 -14.300781 22.46875 -15.4375 C 22.851562 -15.945312 23.140625 -16.160156 23.328125 -16.078125 C 23.515625 -16.003906 23.613281 -15.816406 23.625 -15.515625 C 23.644531 -15.210938 23.5625 -14.96875 23.375 -14.78125 C 23.3125 -14.6875 23.003906 -14.289062 22.453125 -13.59375 C 21.898438 -12.894531 21.171875 -12 20.265625 -10.90625 C 19.359375 -9.8125 18.332031 -8.625 17.1875 -7.34375 C 16.050781 -6.0625 14.863281 -4.785156 13.625 -3.515625 C 12.394531 -2.242188 11.171875 -1.078125 9.953125 -0.015625 C 8.734375 1.035156 7.582031 1.878906 6.5 2.515625 C 5.425781 3.148438 4.476562 3.46875 3.65625 3.46875 Z M 3.65625 3.46875 "/></g></g></g><g fill="#ffffff" fill-opacity="1"><g transform="translate(134.824659, 62.298527)"><g><path d="M 17.25 6.46875 C 16.425781 6.46875 15.679688 6.226562 15.015625 5.75 C 14.347656 5.269531 13.816406 4.691406 13.421875 4.015625 C 13.023438 3.335938 12.828125 2.710938 12.828125 2.140625 C 12.828125 1.128906 13 -0.078125 13.34375 -1.484375 C 13.695312 -2.898438 14.132812 -4.40625 14.65625 -6 C 15.175781 -7.601562 15.722656 -9.210938 16.296875 -10.828125 C 16.867188 -12.441406 17.375 -13.976562 17.8125 -15.4375 C 16.832031 -14.550781 15.769531 -13.453125 14.625 -12.140625 C 13.488281 -10.828125 12.328125 -9.457031 11.140625 -8.03125 C 9.953125 -6.601562 8.800781 -5.28125 7.6875 -4.0625 C 6.582031 -2.84375 5.554688 -1.84375 4.609375 -1.0625 C 3.660156 -0.289062 2.867188 0.09375 2.234375 0.09375 C 1.921875 0.09375 1.5625 -0.046875 1.15625 -0.328125 C 0.757812 -0.617188 0.410156 -1.007812 0.109375 -1.5 C -0.179688 -1.988281 -0.328125 -2.503906 -0.328125 -3.046875 C -0.328125 -3.703125 -0.144531 -4.648438 0.21875 -5.890625 C 0.582031 -7.128906 1.078125 -8.46875 1.703125 -9.90625 C 2.335938 -11.34375 3.054688 -12.726562 3.859375 -14.0625 C 4.671875 -15.394531 5.519531 -16.476562 6.40625 -17.3125 C 7.300781 -18.15625 8.191406 -18.578125 9.078125 -18.578125 C 10.179688 -18.578125 11.160156 -18.320312 12.015625 -17.8125 C 12.867188 -17.3125 13.523438 -16.765625 13.984375 -16.171875 C 14.453125 -15.585938 14.625 -15.203125 14.5 -15.015625 C 14.300781 -14.765625 14.0625 -14.734375 13.78125 -14.921875 C 13.5 -15.109375 13.179688 -15.351562 12.828125 -15.65625 C 12.484375 -15.957031 12.132812 -16.109375 11.78125 -16.109375 C 11.28125 -16.109375 10.628906 -15.804688 9.828125 -15.203125 C 9.035156 -14.597656 8.203125 -13.796875 7.328125 -12.796875 C 6.460938 -11.804688 5.648438 -10.703125 4.890625 -9.484375 C 4.128906 -8.265625 3.507812 -7.039062 3.03125 -5.8125 C 2.5625 -4.59375 2.328125 -3.476562 2.328125 -2.46875 C 2.328125 -2.21875 2.394531 -2.0625 2.53125 -2 C 2.675781 -1.9375 2.78125 -1.90625 2.84375 -1.90625 C 3.226562 -1.90625 3.769531 -2.179688 4.46875 -2.734375 C 5.164062 -3.285156 5.957031 -4.019531 6.84375 -4.9375 C 7.726562 -5.851562 8.632812 -6.84375 9.5625 -7.90625 C 10.5 -8.96875 11.394531 -10.003906 12.25 -11.015625 C 13.113281 -12.035156 13.867188 -12.941406 14.515625 -13.734375 C 15.160156 -14.523438 15.613281 -15.09375 15.875 -15.4375 C 16.695312 -16.457031 17.3125 -17.179688 17.71875 -17.609375 C 18.132812 -18.035156 18.5 -18.25 18.8125 -18.25 C 19.164062 -18.25 19.601562 -18.050781 20.125 -17.65625 C 20.644531 -17.257812 20.90625 -16.742188 20.90625 -16.109375 C 20.90625 -15.828125 20.773438 -15.222656 20.515625 -14.296875 C 20.265625 -13.378906 19.929688 -12.269531 19.515625 -10.96875 C 19.109375 -9.675781 18.675781 -8.289062 18.21875 -6.8125 C 17.757812 -5.34375 17.320312 -3.894531 16.90625 -2.46875 C 16.5 -1.039062 16.164062 0.234375 15.90625 1.359375 C 15.65625 2.484375 15.53125 3.359375 15.53125 3.984375 C 15.53125 4.398438 15.648438 4.671875 15.890625 4.796875 C 16.128906 4.921875 16.3125 4.984375 16.4375 4.984375 C 16.976562 4.984375 17.765625 4.578125 18.796875 3.765625 C 19.828125 2.960938 20.984375 1.910156 22.265625 0.609375 C 23.546875 -0.679688 24.863281 -2.078125 26.21875 -3.578125 C 27.582031 -5.085938 28.882812 -6.554688 30.125 -7.984375 C 31.363281 -9.410156 32.445312 -10.648438 33.375 -11.703125 C 34.3125 -12.765625 34.988281 -13.488281 35.40625 -13.875 C 35.75 -14.1875 35.972656 -14.191406 36.078125 -13.890625 C 36.191406 -13.597656 36.171875 -13.351562 36.015625 -13.15625 C 35.984375 -13.09375 35.640625 -12.679688 34.984375 -11.921875 C 34.335938 -11.160156 33.507812 -10.1875 32.5 -9 C 31.488281 -7.8125 30.375 -6.503906 29.15625 -5.078125 C 27.9375 -3.660156 26.707031 -2.253906 25.46875 -0.859375 C 24.332031 0.410156 23.25 1.609375 22.21875 2.734375 C 21.1875 3.859375 20.242188 4.757812 19.390625 5.4375 C 18.535156 6.125 17.820312 6.46875 17.25 6.46875 Z M 17.25 6.46875 "/></g></g></g><g fill="#ffffff" fill-opacity="1"><g transform="translate(164.18354, 62.298527)"><g><path d="M 1.328125 5.84375 C 1.171875 5.96875 0.867188 5.96875 0.421875 5.84375 C -0.015625 5.71875 -0.414062 5.472656 -0.78125 5.109375 C -1.144531 4.742188 -1.3125 4.257812 -1.28125 3.65625 C -1.1875 2.457031 -0.894531 0.882812 -0.40625 -1.0625 C 0.0820312 -3.007812 0.710938 -5.15625 1.484375 -7.5 C 2.265625 -9.851562 3.097656 -12.1875 3.984375 -14.5 C 4.085938 -14.71875 4.085938 -14.9375 3.984375 -15.15625 L 3.9375 -15.25 C 3.8125 -15.5 3.796875 -15.738281 3.890625 -15.96875 C 4.117188 -16.40625 4.390625 -16.929688 4.703125 -17.546875 C 5.015625 -18.171875 5.328125 -18.726562 5.640625 -19.21875 C 5.960938 -19.707031 6.222656 -19.984375 6.421875 -20.046875 C 6.640625 -20.109375 6.945312 -20.046875 7.34375 -19.859375 C 7.738281 -19.671875 8.09375 -19.410156 8.40625 -19.078125 C 8.726562 -18.742188 8.875 -18.367188 8.84375 -17.953125 C 8.8125 -17.671875 8.523438 -16.925781 7.984375 -15.71875 C 7.441406 -14.519531 6.789062 -13.007812 6.03125 -11.1875 C 5.269531 -9.363281 4.53125 -7.375 3.8125 -5.21875 C 3.101562 -3.070312 2.5625 -0.890625 2.1875 1.328125 C 2.125 1.679688 2.304688 1.570312 2.734375 1 C 3.160156 0.425781 3.757812 -0.441406 4.53125 -1.609375 C 5.3125 -2.785156 6.222656 -4.117188 7.265625 -5.609375 C 8.316406 -7.097656 9.441406 -8.617188 10.640625 -10.171875 C 11.847656 -11.722656 13.078125 -13.15625 14.328125 -14.46875 C 15.578125 -15.78125 16.800781 -16.835938 18 -17.640625 C 19.207031 -18.453125 20.316406 -18.859375 21.328125 -18.859375 C 21.960938 -18.859375 22.492188 -18.617188 22.921875 -18.140625 C 23.347656 -17.671875 23.5625 -16.929688 23.5625 -15.921875 C 23.5625 -15.378906 23.425781 -14.582031 23.15625 -13.53125 C 22.894531 -12.488281 22.566406 -11.328125 22.171875 -10.046875 C 21.773438 -8.765625 21.367188 -7.46875 20.953125 -6.15625 C 20.546875 -4.84375 20.179688 -3.613281 19.859375 -2.46875 C 19.546875 -1.332031 19.332031 -0.394531 19.21875 0.34375 C 19.101562 1.09375 19.160156 1.53125 19.390625 1.65625 C 19.703125 1.851562 20.222656 1.71875 20.953125 1.25 C 21.679688 0.789062 22.535156 0.128906 23.515625 -0.734375 C 24.503906 -1.609375 25.550781 -2.597656 26.65625 -3.703125 C 27.757812 -4.816406 28.847656 -5.953125 29.921875 -7.109375 C 31.003906 -8.265625 32 -9.347656 32.90625 -10.359375 C 33.8125 -11.367188 34.5625 -12.210938 35.15625 -12.890625 C 35.757812 -13.578125 36.125 -13.984375 36.25 -14.109375 C 36.695312 -14.585938 37.015625 -14.691406 37.203125 -14.421875 C 37.390625 -14.148438 37.359375 -13.84375 37.109375 -13.5 C 37.015625 -13.363281 36.625 -12.867188 35.9375 -12.015625 C 35.257812 -11.160156 34.390625 -10.097656 33.328125 -8.828125 C 32.265625 -7.566406 31.097656 -6.238281 29.828125 -4.84375 C 28.566406 -3.445312 27.300781 -2.140625 26.03125 -0.921875 C 24.769531 0.296875 23.59375 1.289062 22.5 2.0625 C 21.40625 2.84375 20.507812 3.234375 19.8125 3.234375 C 19.050781 3.234375 18.414062 3.050781 17.90625 2.6875 C 17.40625 2.320312 17.035156 1.914062 16.796875 1.46875 C 16.554688 1.03125 16.4375 0.664062 16.4375 0.375 C 16.4375 -0.882812 16.625 -2.289062 17 -3.84375 C 17.382812 -5.394531 17.835938 -6.9375 18.359375 -8.46875 C 18.890625 -10.007812 19.390625 -11.445312 19.859375 -12.78125 C 20.335938 -14.113281 20.691406 -15.210938 20.921875 -16.078125 C 21.160156 -16.953125 21.171875 -17.46875 20.953125 -17.625 C 20.515625 -17.976562 19.800781 -17.8125 18.8125 -17.125 C 17.832031 -16.445312 16.660156 -15.363281 15.296875 -13.875 C 13.929688 -12.382812 12.460938 -10.609375 10.890625 -8.546875 C 9.328125 -6.492188 7.726562 -4.238281 6.09375 -1.78125 C 4.46875 0.675781 2.878906 3.21875 1.328125 5.84375 Z M 1.328125 5.84375 "/></g></g></g><g fill="#ffffff" fill-opacity="1"><g transform="translate(195.490173, 62.298527)"><g><path d="M 17.25 6.46875 C 16.425781 6.46875 15.679688 6.226562 15.015625 5.75 C 14.347656 5.269531 13.816406 4.691406 13.421875 4.015625 C 13.023438 3.335938 12.828125 2.710938 12.828125 2.140625 C 12.828125 1.128906 13 -0.078125 13.34375 -1.484375 C 13.695312 -2.898438 14.132812 -4.40625 14.65625 -6 C 15.175781 -7.601562 15.722656 -9.210938 16.296875 -10.828125 C 16.867188 -12.441406 17.375 -13.976562 17.8125 -15.4375 C 16.832031 -14.550781 15.769531 -13.453125 14.625 -12.140625 C 13.488281 -10.828125 12.328125 -9.457031 11.140625 -8.03125 C 9.953125 -6.601562 8.800781 -5.28125 7.6875 -4.0625 C 6.582031 -2.84375 5.554688 -1.84375 4.609375 -1.0625 C 3.660156 -0.289062 2.867188 0.09375 2.234375 0.09375 C 1.921875 0.09375 1.5625 -0.046875 1.15625 -0.328125 C 0.757812 -0.617188 0.410156 -1.007812 0.109375 -1.5 C -0.179688 -1.988281 -0.328125 -2.503906 -0.328125 -3.046875 C -0.328125 -3.703125 -0.144531 -4.648438 0.21875 -5.890625 C 0.582031 -7.128906 1.078125 -8.46875 1.703125 -9.90625 C 2.335938 -11.34375 3.054688 -12.726562 3.859375 -14.0625 C 4.671875 -15.394531 5.519531 -16.476562 6.40625 -17.3125 C 7.300781 -18.15625 8.191406 -18.578125 9.078125 -18.578125 C 10.179688 -18.578125 11.160156 -18.320312 12.015625 -17.8125 C 12.867188 -17.3125 13.523438 -16.765625 13.984375 -16.171875 C 14.453125 -15.585938 14.625 -15.203125 14.5 -15.015625 C 14.300781 -14.765625 14.0625 -14.734375 13.78125 -14.921875 C 13.5 -15.109375 13.179688 -15.351562 12.828125 -15.65625 C 12.484375 -15.957031 12.132812 -16.109375 11.78125 -16.109375 C 11.28125 -16.109375 10.628906 -15.804688 9.828125 -15.203125 C 9.035156 -14.597656 8.203125 -13.796875 7.328125 -12.796875 C 6.460938 -11.804688 5.648438 -10.703125 4.890625 -9.484375 C 4.128906 -8.265625 3.507812 -7.039062 3.03125 -5.8125 C 2.5625 -4.59375 2.328125 -3.476562 2.328125 -2.46875 C 2.328125 -2.21875 2.394531 -2.0625 2.53125 -2 C 2.675781 -1.9375 2.78125 -1.90625 2.84375 -1.90625 C 3.226562 -1.90625 3.769531 -2.179688 4.46875 -2.734375 C 5.164062 -3.285156 5.957031 -4.019531 6.84375 -4.9375 C 7.726562 -5.851562 8.632812 -6.84375 9.5625 -7.90625 C 10.5 -8.96875 11.394531 -10.003906 12.25 -11.015625 C 13.113281 -12.035156 13.867188 -12.941406 14.515625 -13.734375 C 15.160156 -14.523438 15.613281 -15.09375 15.875 -15.4375 C 16.695312 -16.457031 17.3125 -17.179688 17.71875 -17.609375 C 18.132812 -18.035156 18.5 -18.25 18.8125 -18.25 C 19.164062 -18.25 19.601562 -18.050781 20.125 -17.65625 C 20.644531 -17.257812 20.90625 -16.742188 20.90625 -16.109375 C 20.90625 -15.828125 20.773438 -15.222656 20.515625 -14.296875 C 20.265625 -13.378906 19.929688 -12.269531 19.515625 -10.96875 C 19.109375 -9.675781 18.675781 -8.289062 18.21875 -6.8125 C 17.757812 -5.34375 17.320312 -3.894531 16.90625 -2.46875 C 16.5 -1.039062 16.164062 0.234375 15.90625 1.359375 C 15.65625 2.484375 15.53125 3.359375 15.53125 3.984375 C 15.53125 4.398438 15.648438 4.671875 15.890625 4.796875 C 16.128906 4.921875 16.3125 4.984375 16.4375 4.984375 C 16.976562 4.984375 17.765625 4.578125 18.796875 3.765625 C 19.828125 2.960938 20.984375 1.910156 22.265625 0.609375 C 23.546875 -0.679688 24.863281 -2.078125 26.21875 -3.578125 C 27.582031 -5.085938 28.882812 -6.554688 30.125 -7.984375 C 31.363281 -9.410156 32.445312 -10.648438 33.375 -11.703125 C 34.3125 -12.765625 34.988281 -13.488281 35.40625 -13.875 C 35.75 -14.1875 35.972656 -14.191406 36.078125 -13.890625 C 36.191406 -13.597656 36.171875 -13.351562 36.015625 -13.15625 C 35.984375 -13.09375 35.640625 -12.679688 34.984375 -11.921875 C 34.335938 -11.160156 33.507812 -10.1875 32.5 -9 C 31.488281 -7.8125 30.375 -6.503906 29.15625 -5.078125 C 27.9375 -3.660156 26.707031 -2.253906 25.46875 -0.859375 C 24.332031 0.410156 23.25 1.609375 22.21875 2.734375 C 21.1875 3.859375 20.242188 4.757812 19.390625 5.4375 C 18.535156 6.125 17.820312 6.46875 17.25 6.46875 Z M 17.25 6.46875 "/></g></g></g><g fill="#ffffff" fill-opacity="1"><g transform="translate(224.849055, 62.298527)"><g><path d="M 3.046875 2.703125 C 2.847656 3.179688 2.554688 3.34375 2.171875 3.1875 C 1.796875 3.03125 1.414062 2.703125 1.03125 2.203125 C 0.65625 1.710938 0.359375 1.175781 0.140625 0.59375 C -0.078125 0.0078125 -0.125 -0.472656 0 -0.859375 C 0.09375 -1.109375 0.296875 -1.738281 0.609375 -2.75 C 0.929688 -3.769531 1.320312 -5 1.78125 -6.4375 C 2.238281 -7.875 2.710938 -9.414062 3.203125 -11.0625 C 3.691406 -12.71875 4.148438 -14.320312 4.578125 -15.875 C 5.015625 -17.425781 5.363281 -18.8125 5.625 -20.03125 C 5.894531 -21.25 6.03125 -22.144531 6.03125 -22.71875 C 6.03125 -23 6.195312 -23.082031 6.53125 -22.96875 C 6.863281 -22.863281 7.242188 -22.628906 7.671875 -22.265625 C 8.097656 -21.898438 8.453125 -21.503906 8.734375 -21.078125 C 9.023438 -20.648438 9.125 -20.257812 9.03125 -19.90625 C 8.96875 -19.6875 8.757812 -19.078125 8.40625 -18.078125 C 8.0625 -17.078125 7.644531 -15.863281 7.15625 -14.4375 C 6.664062 -13.019531 6.164062 -11.566406 5.65625 -10.078125 C 5.144531 -8.585938 4.691406 -7.238281 4.296875 -6.03125 C 3.898438 -4.832031 3.640625 -3.921875 3.515625 -3.296875 C 3.390625 -2.679688 3.453125 -2.566406 3.703125 -2.953125 C 4.023438 -3.390625 4.53125 -4.113281 5.21875 -5.125 C 5.914062 -6.144531 6.71875 -7.269531 7.625 -8.5 C 8.53125 -9.738281 9.460938 -10.925781 10.421875 -12.0625 C 11.390625 -13.207031 12.316406 -14.148438 13.203125 -14.890625 C 14.097656 -15.640625 14.84375 -16 15.4375 -15.96875 C 16.101562 -15.96875 16.625 -15.632812 17 -14.96875 C 17.382812 -14.300781 17.695312 -13.546875 17.9375 -12.703125 C 18.175781 -11.867188 18.40625 -11.148438 18.625 -10.546875 C 18.875 -9.941406 19.144531 -9.625 19.4375 -9.59375 C 19.90625 -9.53125 20.507812 -9.65625 21.25 -9.96875 C 22 -10.289062 22.800781 -10.710938 23.65625 -11.234375 C 24.519531 -11.753906 25.347656 -12.300781 26.140625 -12.875 C 26.929688 -13.445312 27.617188 -13.96875 28.203125 -14.4375 C 28.785156 -14.914062 29.171875 -15.234375 29.359375 -15.390625 C 29.867188 -15.835938 30.207031 -15.894531 30.375 -15.5625 C 30.550781 -15.226562 30.421875 -14.875 29.984375 -14.5 C 29.796875 -14.332031 29.429688 -13.992188 28.890625 -13.484375 C 28.347656 -12.984375 27.710938 -12.40625 26.984375 -11.75 C 26.253906 -11.101562 25.5 -10.460938 24.71875 -9.828125 C 23.945312 -9.203125 23.226562 -8.679688 22.5625 -8.265625 C 21.90625 -7.859375 21.367188 -7.640625 20.953125 -7.609375 C 19.816406 -7.578125 18.898438 -7.929688 18.203125 -8.671875 C 17.503906 -9.410156 16.976562 -10.210938 16.625 -11.078125 C 16.34375 -11.796875 16.113281 -12.425781 15.9375 -12.96875 C 15.769531 -13.507812 15.507812 -13.765625 15.15625 -13.734375 C 14.550781 -13.671875 13.859375 -13.273438 13.078125 -12.546875 C 12.304688 -11.816406 11.484375 -10.878906 10.609375 -9.734375 C 9.742188 -8.597656 8.890625 -7.378906 8.046875 -6.078125 C 7.210938 -4.785156 6.4375 -3.519531 5.71875 -2.28125 C 5.007812 -1.039062 4.414062 0.0195312 3.9375 0.90625 C 3.46875 1.789062 3.171875 2.390625 3.046875 2.703125 Z M 3.046875 2.703125 "/></g></g></g><g fill="#ffffff" fill-opacity="1"><g transform="translate(248.412163, 62.298527)"><g><path d="M 26.1875 -14.875 C 26.28125 -15.03125 26.453125 -15.082031 26.703125 -15.03125 C 26.953125 -14.988281 27.164062 -14.878906 27.34375 -14.703125 C 27.519531 -14.523438 27.53125 -14.34375 27.375 -14.15625 C 26.800781 -13.363281 26.003906 -12.441406 24.984375 -11.390625 C 23.972656 -10.347656 22.78125 -9.304688 21.40625 -8.265625 C 20.03125 -7.222656 18.507812 -6.328125 16.84375 -5.578125 C 15.175781 -4.835938 13.410156 -4.375 11.546875 -4.1875 C 10.785156 -2.789062 9.976562 -1.515625 9.125 -0.359375 C 8.269531 0.796875 7.429688 1.707031 6.609375 2.375 C 5.785156 3.039062 5.023438 3.375 4.328125 3.375 C 3.628906 3.375 2.976562 3.144531 2.375 2.6875 C 1.769531 2.226562 1.285156 1.664062 0.921875 1 C 0.554688 0.332031 0.375 -0.316406 0.375 -0.953125 C 0.40625 -1.867188 0.515625 -2.8125 0.703125 -3.78125 C 0.898438 -4.75 1.15625 -5.707031 1.46875 -6.65625 C 0.613281 -7.351562 0 -8.132812 -0.375 -9 C -0.757812 -9.875 -0.953125 -10.753906 -0.953125 -11.640625 C -0.953125 -13.253906 -0.597656 -14.71875 0.109375 -16.03125 C 0.828125 -17.351562 1.753906 -18.488281 2.890625 -19.4375 C 4.035156 -20.382812 5.269531 -21.109375 6.59375 -21.609375 C 7.925781 -22.117188 9.226562 -22.375 10.5 -22.375 C 11.894531 -22.375 13.097656 -21.921875 14.109375 -21.015625 C 15.117188 -20.117188 15.625 -18.941406 15.625 -17.484375 C 15.625 -15.773438 15.289062 -13.828125 14.625 -11.640625 C 13.96875 -9.453125 13.128906 -7.332031 12.109375 -5.28125 C 13.660156 -5.5 15.300781 -5.988281 17.03125 -6.75 C 18.757812 -7.507812 20.421875 -8.5625 22.015625 -9.90625 C 23.617188 -11.25 25.007812 -12.90625 26.1875 -14.875 Z M 1.65625 -10.546875 C 1.65625 -9.785156 1.816406 -9.085938 2.140625 -8.453125 C 2.742188 -9.847656 3.382812 -11.113281 4.0625 -12.25 C 4.738281 -13.394531 5.394531 -14.304688 6.03125 -14.984375 C 6.664062 -15.671875 7.15625 -16.015625 7.5 -16.015625 C 8.363281 -16.015625 8.984375 -15.742188 9.359375 -15.203125 C 9.742188 -14.660156 9.820312 -14.203125 9.59375 -13.828125 C 9 -12.710938 8.359375 -11.441406 7.671875 -10.015625 C 6.992188 -8.597656 6.367188 -7.191406 5.796875 -5.796875 C 6.429688 -5.609375 7.132812 -5.457031 7.90625 -5.34375 C 8.6875 -5.226562 9.550781 -5.171875 10.5 -5.171875 L 10.78125 -5.171875 C 11.800781 -7.140625 12.648438 -9.265625 13.328125 -11.546875 C 14.003906 -13.828125 14.34375 -16.015625 14.34375 -18.109375 C 14.34375 -19.085938 14.082031 -19.859375 13.5625 -20.421875 C 13.039062 -20.992188 12.367188 -21.28125 11.546875 -21.28125 C 10.441406 -21.28125 9.390625 -20.992188 8.390625 -20.421875 C 7.390625 -19.859375 6.476562 -19.132812 5.65625 -18.25 C 4.832031 -17.363281 4.117188 -16.421875 3.515625 -15.421875 C 2.910156 -14.421875 2.445312 -13.484375 2.125 -12.609375 C 1.8125 -11.742188 1.65625 -11.054688 1.65625 -10.546875 Z M 4.328125 2.1875 C 5.085938 2.1875 6.015625 1.59375 7.109375 0.40625 C 8.203125 -0.78125 9.253906 -2.296875 10.265625 -4.140625 L 10.171875 -4.140625 C 8.296875 -4.140625 6.695312 -4.328125 5.375 -4.703125 C 4.894531 -3.460938 4.492188 -2.320312 4.171875 -1.28125 C 3.859375 -0.238281 3.703125 0.597656 3.703125 1.234375 C 3.703125 1.867188 3.910156 2.1875 4.328125 2.1875 Z M 4.328125 2.1875 "/></g></g></g><g fill="#ffffff" fill-opacity="1"><g transform="translate(269.267406, 62.298527)"><g><path d="M 1.328125 11.875 C 1.046875 11.875 0.609375 11.769531 0.015625 11.5625 C -0.566406 11.363281 -1.101562 10.945312 -1.59375 10.3125 C -2.082031 9.675781 -2.328125 8.691406 -2.328125 7.359375 C -2.328125 6.441406 -2.128906 5.164062 -1.734375 3.53125 C -1.335938 1.90625 -0.8125 0.0976562 -0.15625 -1.890625 C 0.488281 -3.890625 1.191406 -5.9375 1.953125 -8.03125 C 2.710938 -10.125 3.460938 -12.113281 4.203125 -14 C 4.953125 -15.882812 5.59375 -17.519531 6.125 -18.90625 C 6.21875 -19.132812 6.21875 -19.359375 6.125 -19.578125 L 6.078125 -19.671875 C 5.953125 -19.921875 5.9375 -20.160156 6.03125 -20.390625 C 6.21875 -20.859375 6.507812 -21.476562 6.90625 -22.25 C 7.300781 -23.03125 7.6875 -23.742188 8.0625 -24.390625 C 8.445312 -25.046875 8.738281 -25.40625 8.9375 -25.46875 C 9.15625 -25.53125 9.484375 -25.457031 9.921875 -25.25 C 10.367188 -25.050781 10.757812 -24.785156 11.09375 -24.453125 C 11.425781 -24.117188 11.515625 -23.757812 11.359375 -23.375 C 11.035156 -22.675781 10.566406 -21.566406 9.953125 -20.046875 C 9.335938 -18.523438 8.648438 -16.757812 7.890625 -14.75 C 7.128906 -12.738281 6.34375 -10.625 5.53125 -8.40625 C 4.726562 -6.1875 3.96875 -4.023438 3.25 -1.921875 C 2.539062 0.179688 1.925781 2.085938 1.40625 3.796875 C 0.882812 5.503906 0.523438 6.875 0.328125 7.90625 C 0.140625 8.9375 0.1875 9.453125 0.46875 9.453125 C 0.726562 9.453125 1.15625 9.007812 1.75 8.125 C 2.351562 7.238281 3.097656 6.035156 3.984375 4.515625 C 4.878906 2.992188 5.863281 1.273438 6.9375 -0.640625 C 8.007812 -2.554688 9.113281 -4.523438 10.25 -6.546875 C 11.394531 -8.578125 12.546875 -10.539062 13.703125 -12.4375 C 14.859375 -14.34375 15.953125 -16.0625 16.984375 -17.59375 C 18.015625 -19.132812 18.957031 -20.359375 19.8125 -21.265625 C 20.664062 -22.171875 21.363281 -22.625 21.90625 -22.625 C 22.695312 -22.625 23.273438 -22.441406 23.640625 -22.078125 C 24.003906 -21.710938 24.238281 -21.273438 24.34375 -20.765625 C 24.457031 -20.253906 24.515625 -19.78125 24.515625 -19.34375 C 24.515625 -18.800781 24.394531 -17.988281 24.15625 -16.90625 C 23.925781 -15.832031 23.632812 -14.628906 23.28125 -13.296875 C 22.9375 -11.972656 22.570312 -10.628906 22.1875 -9.265625 C 21.8125 -7.898438 21.460938 -6.644531 21.140625 -5.5 C 20.828125 -4.363281 20.609375 -3.4375 20.484375 -2.71875 C 20.359375 -2.007812 20.359375 -1.65625 20.484375 -1.65625 C 20.890625 -1.65625 21.410156 -2.007812 22.046875 -2.71875 C 22.679688 -3.4375 23.382812 -4.363281 24.15625 -5.5 C 24.9375 -6.644531 25.742188 -7.84375 26.578125 -9.09375 C 27.421875 -10.34375 28.253906 -11.535156 29.078125 -12.671875 C 29.898438 -13.816406 30.660156 -14.742188 31.359375 -15.453125 C 32.054688 -16.171875 32.660156 -16.53125 33.171875 -16.53125 C 34.179688 -16.53125 34.921875 -16.335938 35.390625 -15.953125 C 35.867188 -15.578125 36.179688 -15.132812 36.328125 -14.625 C 36.472656 -14.125 36.546875 -13.679688 36.546875 -13.296875 C 36.546875 -12.410156 36.441406 -11.378906 36.234375 -10.203125 C 36.023438 -9.035156 35.773438 -7.847656 35.484375 -6.640625 C 35.203125 -5.441406 34.957031 -4.328125 34.75 -3.296875 C 34.550781 -2.273438 34.453125 -1.445312 34.453125 -0.8125 C 34.453125 -0.175781 34.625 0.140625 34.96875 0.140625 C 35.414062 0.140625 36.101562 -0.210938 37.03125 -0.921875 C 37.96875 -1.640625 39.085938 -2.640625 40.390625 -3.921875 C 41.691406 -5.203125 43.097656 -6.6875 44.609375 -8.375 C 46.128906 -10.070312 47.6875 -11.921875 49.28125 -13.921875 C 49.53125 -14.234375 49.769531 -14.265625 50 -14.015625 C 50.238281 -13.765625 50.234375 -13.507812 49.984375 -13.25 C 49.921875 -13.1875 49.597656 -12.78125 49.015625 -12.03125 C 48.429688 -11.289062 47.6875 -10.359375 46.78125 -9.234375 C 45.875 -8.117188 44.875 -6.941406 43.78125 -5.703125 C 42.6875 -4.460938 41.601562 -3.296875 40.53125 -2.203125 C 39.457031 -1.109375 38.453125 -0.222656 37.515625 0.453125 C 36.578125 1.128906 35.789062 1.46875 35.15625 1.46875 C 34.78125 1.46875 34.289062 1.316406 33.6875 1.015625 C 33.082031 0.710938 32.535156 0.285156 32.046875 -0.265625 C 31.554688 -0.816406 31.3125 -1.441406 31.3125 -2.140625 C 31.3125 -3.472656 31.46875 -4.898438 31.78125 -6.421875 C 32.101562 -7.941406 32.453125 -9.363281 32.828125 -10.6875 C 33.210938 -12.019531 33.484375 -13.113281 33.640625 -13.96875 C 33.796875 -14.820312 33.734375 -15.25 33.453125 -15.25 C 33.265625 -15.25 32.859375 -14.84375 32.234375 -14.03125 C 31.617188 -13.226562 30.875 -12.191406 30 -10.921875 C 29.132812 -9.660156 28.21875 -8.304688 27.25 -6.859375 C 26.28125 -5.421875 25.335938 -4.066406 24.421875 -2.796875 C 23.503906 -1.535156 22.695312 -0.503906 22 0.296875 C 21.300781 1.109375 20.78125 1.515625 20.4375 1.515625 C 20.019531 1.515625 19.550781 1.347656 19.03125 1.015625 C 18.507812 0.679688 18.054688 0.1875 17.671875 -0.46875 C 17.296875 -1.132812 17.109375 -1.960938 17.109375 -2.953125 C 17.109375 -3.773438 17.238281 -4.769531 17.5 -5.9375 C 17.769531 -7.113281 18.113281 -8.359375 18.53125 -9.671875 C 18.945312 -10.984375 19.375 -12.285156 19.8125 -13.578125 C 20.257812 -14.878906 20.648438 -16.050781 20.984375 -17.09375 C 21.316406 -18.144531 21.535156 -18.988281 21.640625 -19.625 C 21.753906 -20.257812 21.703125 -20.578125 21.484375 -20.578125 C 21.191406 -20.578125 20.6875 -20.113281 19.96875 -19.1875 C 19.257812 -18.269531 18.421875 -17.035156 17.453125 -15.484375 C 16.492188 -13.929688 15.441406 -12.195312 14.296875 -10.28125 C 13.160156 -8.363281 12.015625 -6.375 10.859375 -4.3125 C 9.703125 -2.257812 8.578125 -0.273438 7.484375 1.640625 C 6.390625 3.554688 5.398438 5.289062 4.515625 6.84375 C 3.628906 8.394531 2.90625 9.617188 2.34375 10.515625 C 1.789062 11.421875 1.453125 11.875 1.328125 11.875 Z M 1.328125 11.875 "/></g></g></g><g fill="#ffffff" fill-opacity="1"><g transform="translate(313.210707, 62.298527)"><g><path d="M 17.25 6.46875 C 16.425781 6.46875 15.679688 6.226562 15.015625 5.75 C 14.347656 5.269531 13.816406 4.691406 13.421875 4.015625 C 13.023438 3.335938 12.828125 2.710938 12.828125 2.140625 C 12.828125 1.128906 13 -0.078125 13.34375 -1.484375 C 13.695312 -2.898438 14.132812 -4.40625 14.65625 -6 C 15.175781 -7.601562 15.722656 -9.210938 16.296875 -10.828125 C 16.867188 -12.441406 17.375 -13.976562 17.8125 -15.4375 C 16.832031 -14.550781 15.769531 -13.453125 14.625 -12.140625 C 13.488281 -10.828125 12.328125 -9.457031 11.140625 -8.03125 C 9.953125 -6.601562 8.800781 -5.28125 7.6875 -4.0625 C 6.582031 -2.84375 5.554688 -1.84375 4.609375 -1.0625 C 3.660156 -0.289062 2.867188 0.09375 2.234375 0.09375 C 1.921875 0.09375 1.5625 -0.046875 1.15625 -0.328125 C 0.757812 -0.617188 0.410156 -1.007812 0.109375 -1.5 C -0.179688 -1.988281 -0.328125 -2.503906 -0.328125 -3.046875 C -0.328125 -3.703125 -0.144531 -4.648438 0.21875 -5.890625 C 0.582031 -7.128906 1.078125 -8.46875 1.703125 -9.90625 C 2.335938 -11.34375 3.054688 -12.726562 3.859375 -14.0625 C 4.671875 -15.394531 5.519531 -16.476562 6.40625 -17.3125 C 7.300781 -18.15625 8.191406 -18.578125 9.078125 -18.578125 C 10.179688 -18.578125 11.160156 -18.320312 12.015625 -17.8125 C 12.867188 -17.3125 13.523438 -16.765625 13.984375 -16.171875 C 14.453125 -15.585938 14.625 -15.203125 14.5 -15.015625 C 14.300781 -14.765625 14.0625 -14.734375 13.78125 -14.921875 C 13.5 -15.109375 13.179688 -15.351562 12.828125 -15.65625 C 12.484375 -15.957031 12.132812 -16.109375 11.78125 -16.109375 C 11.28125 -16.109375 10.628906 -15.804688 9.828125 -15.203125 C 9.035156 -14.597656 8.203125 -13.796875 7.328125 -12.796875 C 6.460938 -11.804688 5.648438 -10.703125 4.890625 -9.484375 C 4.128906 -8.265625 3.507812 -7.039062 3.03125 -5.8125 C 2.5625 -4.59375 2.328125 -3.476562 2.328125 -2.46875 C 2.328125 -2.21875 2.394531 -2.0625 2.53125 -2 C 2.675781 -1.9375 2.78125 -1.90625 2.84375 -1.90625 C 3.226562 -1.90625 3.769531 -2.179688 4.46875 -2.734375 C 5.164062 -3.285156 5.957031 -4.019531 6.84375 -4.9375 C 7.726562 -5.851562 8.632812 -6.84375 9.5625 -7.90625 C 10.5 -8.96875 11.394531 -10.003906 12.25 -11.015625 C 13.113281 -12.035156 13.867188 -12.941406 14.515625 -13.734375 C 15.160156 -14.523438 15.613281 -15.09375 15.875 -15.4375 C 16.695312 -16.457031 17.3125 -17.179688 17.71875 -17.609375 C 18.132812 -18.035156 18.5 -18.25 18.8125 -18.25 C 19.164062 -18.25 19.601562 -18.050781 20.125 -17.65625 C 20.644531 -17.257812 20.90625 -16.742188 20.90625 -16.109375 C 20.90625 -15.828125 20.773438 -15.222656 20.515625 -14.296875 C 20.265625 -13.378906 19.929688 -12.269531 19.515625 -10.96875 C 19.109375 -9.675781 18.675781 -8.289062 18.21875 -6.8125 C 17.757812 -5.34375 17.320312 -3.894531 16.90625 -2.46875 C 16.5 -1.039062 16.164062 0.234375 15.90625 1.359375 C 15.65625 2.484375 15.53125 3.359375 15.53125 3.984375 C 15.53125 4.398438 15.648438 4.671875 15.890625 4.796875 C 16.128906 4.921875 16.3125 4.984375 16.4375 4.984375 C 16.976562 4.984375 17.765625 4.578125 18.796875 3.765625 C 19.828125 2.960938 20.984375 1.910156 22.265625 0.609375 C 23.546875 -0.679688 24.863281 -2.078125 26.21875 -3.578125 C 27.582031 -5.085938 28.882812 -6.554688 30.125 -7.984375 C 31.363281 -9.410156 32.445312 -10.648438 33.375 -11.703125 C 34.3125 -12.765625 34.988281 -13.488281 35.40625 -13.875 C 35.75 -14.1875 35.972656 -14.191406 36.078125 -13.890625 C 36.191406 -13.597656 36.171875 -13.351562 36.015625 -13.15625 C 35.984375 -13.09375 35.640625 -12.679688 34.984375 -11.921875 C 34.335938 -11.160156 33.507812 -10.1875 32.5 -9 C 31.488281 -7.8125 30.375 -6.503906 29.15625 -5.078125 C 27.9375 -3.660156 26.707031 -2.253906 25.46875 -0.859375 C 24.332031 0.410156 23.25 1.609375 22.21875 2.734375 C 21.1875 3.859375 20.242188 4.757812 19.390625 5.4375 C 18.535156 6.125 17.820312 6.46875 17.25 6.46875 Z M 17.25 6.46875 "/></g></g></g></g></g><path fill="#ffffff" d="M 456.664062 41.96875 C 457.207031 41.96875 457.566406 41.671875 457.566406 41.128906 C 457.566406 40.582031 457.207031 40.320312 456.648438 40.320312 L 455.78125 40.320312 L 455.78125 41.96875 Z M 455.007812 39.613281 L 456.695312 39.613281 C 457.707031 39.613281 458.351562 40.152344 458.351562 41.113281 C 458.351562 41.84375 457.949219 42.300781 457.375 42.5 L 458.480469 44.328125 L 457.578125 44.328125 L 456.582031 42.664062 C 456.574219 42.65625 456.332031 42.664062 456.328125 42.664062 L 455.78125 42.664062 L 455.78125 44.328125 L 455.007812 44.328125 L 455.007812 39.613281 " fill-opacity="1" fill-rule="nonzero"/><g clip-path="url(#4c7b07ef2c)"><path fill="#ffffff" d="M 456.59375 38.027344 C 456.058594 38.027344 455.542969 38.128906 455.058594 38.335938 C 454.589844 38.535156 454.167969 38.820312 453.804688 39.179688 C 453.445312 39.542969 453.160156 39.964844 452.960938 40.433594 C 452.753906 40.917969 452.652344 41.433594 452.652344 41.96875 C 452.652344 42.5 452.753906 43.015625 452.960938 43.5 C 453.160156 43.96875 453.445312 44.390625 453.804688 44.753906 C 454.167969 45.117188 454.589844 45.398438 455.058594 45.597656 C 455.542969 45.804688 456.058594 45.90625 456.59375 45.90625 C 457.125 45.90625 457.640625 45.804688 458.125 45.597656 C 458.59375 45.398438 459.015625 45.117188 459.378906 44.753906 C 459.742188 44.390625 460.023438 43.96875 460.222656 43.5 C 460.429688 43.015625 460.53125 42.5 460.53125 41.96875 C 460.53125 41.433594 460.429688 40.917969 460.222656 40.433594 C 460.023438 39.964844 459.742188 39.542969 459.378906 39.179688 C 459.015625 38.820312 458.59375 38.535156 458.125 38.335938 C 457.640625 38.128906 457.125 38.027344 456.59375 38.027344 Z M 456.59375 46.726562 C 455.949219 46.726562 455.328125 46.597656 454.742188 46.351562 C 454.171875 46.109375 453.664062 45.769531 453.226562 45.332031 C 452.792969 44.894531 452.449219 44.386719 452.207031 43.820312 C 451.960938 43.230469 451.835938 42.609375 451.835938 41.96875 C 451.835938 41.324219 451.960938 40.703125 452.207031 40.117188 C 452.449219 39.546875 452.792969 39.039062 453.226562 38.601562 C 453.664062 38.167969 454.171875 37.824219 454.742188 37.582031 C 455.328125 37.335938 455.949219 37.210938 456.59375 37.210938 C 457.234375 37.210938 457.855469 37.335938 458.445312 37.582031 C 459.011719 37.824219 459.519531 38.167969 459.957031 38.601562 C 460.394531 39.039062 460.734375 39.546875 460.976562 40.117188 C 461.222656 40.703125 461.351562 41.324219 461.351562 41.96875 C 461.351562 42.609375 461.222656 43.230469 460.976562 43.820312 C 460.734375 44.386719 460.394531 44.894531 459.957031 45.332031 C 459.519531 45.769531 459.011719 46.109375 458.445312 46.351562 C 457.855469 46.597656 457.234375 46.726562 456.59375 46.726562 " fill-opacity="1" fill-rule="nonzero"/></g></svg>